<?xml version="1.0" encoding="UTF-8"?>
<svg version="1.1" xmlns="http://www.w3.org/2000/svg" width="1024" height="790">
<path d="M0 0 C0.71172363 0.25507324 1.42344727 0.51014648 2.15673828 0.77294922 C26.62936982 9.64460958 48.11272269 21.95093767 67.27197266 39.65649414 C79.78506142 51.20870712 92.96635865 61.45441302 107.02734375 71.0703125 C130.55834932 87.418169 149.21555907 110.97602627 161 137 C161 137.99 161 138.98 161 140 C165.75088122 137.57196661 168.67084059 134.25276574 172.125 130.3125 C193.48964356 106.75444782 226.81094846 94.67494996 258.08984375 92.81640625 C263.74811123 92.68445763 268.58448784 93.36512841 274 95 C274 96.32 274 97.64 274 99 C271.29817072 101.70182928 269.1885027 101.6987853 265.4375 102.375 C264.07122281 102.63466577 262.70535008 102.89646677 261.33984375 103.16015625 C260.62683105 103.29695801 259.91381836 103.43375977 259.17919922 103.57470703 C247.21066366 105.9104889 236.15036993 109.000318 225 114 C224.38995117 114.27215332 223.77990234 114.54430664 223.15136719 114.82470703 C214.87511602 118.56893383 207.79869285 122.95671747 201 129 C200.02160156 129.8353125 199.04320312 130.670625 198.03515625 131.53125 C186.73207094 141.34144125 179.31623697 152.51415606 172.97167969 165.95996094 C171.36549228 169.33214736 169.67962791 172.66396485 168 176 C167.4225 177.155 166.845 178.31 166.25 179.5 C165.8375 180.325 165.425 181.15 165 182 C161.76902601 180.96543202 160.98053612 179.96669916 159.23583984 176.98168945 C158.63227358 175.69776187 158.0414431 174.40779873 157.4609375 173.11328125 C157.13517731 172.41921677 156.80941711 171.72515228 156.4737854 171.01005554 C155.08761333 168.05540292 153.73028869 165.08776169 152.37060547 162.12084961 C144.63974126 145.3391715 134.61230994 125.72526334 119 115 C116.86307459 114.29763718 116.86307459 114.29763718 115 114 C115.25394531 115.00417969 115.50789062 116.00835937 115.76953125 117.04296875 C117.44431137 123.68656261 119.10513893 130.3337165 120.6875 137 C121.03361328 138.4540625 121.03361328 138.4540625 121.38671875 139.9375 C130.96590152 187.77239997 110.44173895 238.80493822 84.59912109 278.13183594 C81.84990977 282.17908611 78.95383686 286.1001631 76 290 C75.59716797 290.53882813 75.19433594 291.07765625 74.77929688 291.6328125 C60.09774048 311.2702667 43.66193438 330.05641612 25 346 C23.92285532 346.92931468 22.84606091 347.85903544 21.76953125 348.7890625 C16.40451003 353.41492613 11.02673701 358.00468139 5.5 362.4375 C1.0117696 366.10724892 -3.37238997 369.87912446 -7.6875 373.75 C-8.31269531 374.29325928 -8.93789063 374.83651855 -9.58203125 375.39624023 C-12.90305633 378.4161437 -12.90305633 378.4161437 -14.7265625 382.421875 C-13.59822648 386.42564796 -11.24194034 389.26546373 -8.6875 392.5 C-8.14569092 393.20342529 -7.60388184 393.90685059 -7.0456543 394.6315918 C-2.71354555 400.21008762 1.79937264 405.62745352 6.41015625 410.9765625 C8.86538658 413.84284949 11.25295853 416.75225284 13.625 419.6875 C17.24834495 424.13903808 21.01963872 428.42382455 24.8828125 432.66796875 C26.78051169 434.75823889 28.64733415 436.86986115 30.5 439 C33.85497455 442.84971734 37.26638072 446.64652998 40.6875 450.4375 C42.92117493 452.91265331 45.14817716 455.39368312 47.375 457.875 C51.61180751 462.5825639 55.88579726 467.25533059 60.171875 471.91796875 C62.06406522 473.97700146 63.9489227 476.04238992 65.828125 478.11328125 C70.74108539 483.51839211 75.74605885 488.78874362 80.94921875 493.91796875 C83.51247095 496.52028003 85.87730124 499.26336518 88.25390625 502.03515625 C90.09615675 504.10820324 92.02401662 506.05435802 94 508 C97.14839051 511.10633186 100.07732421 514.32473292 102.9609375 517.67578125 C105.5475324 520.62410302 108.20833534 523.49917702 110.875 526.375 C115.15647805 530.99384664 119.3909302 535.64950182 123.58984375 540.34375 C125.42019798 542.36099615 127.26481314 544.35807342 129.12890625 546.34375 C135.10958314 552.7172034 140.88444843 559.1147443 146.29296875 565.98828125 C147.8478198 568.08751004 147.8478198 568.08751004 150 569 C150.03867188 567.95392578 150.03867188 567.95392578 150.078125 566.88671875 C151.90213541 532.93525229 159.45790321 498.88975421 176 469 C176.37350586 468.32163086 176.74701172 467.64326172 177.13183594 466.94433594 C186.35675355 450.36099112 197.42180611 435.3331305 209.53955078 420.76464844 C211.5948109 418.28129502 213.60560265 415.76254786 215.625 413.25 C219.71759893 408.24709873 224.05595981 403.50257689 228.44921875 398.765625 C230.48401883 396.55944053 232.47646238 394.33367739 234.4375 392.0625 C239.48747247 386.25026753 244.75288338 380.6335774 250 375 C250.92377441 374.00637451 250.92377441 374.00637451 251.86621094 372.99267578 C259.7545212 364.51820644 267.75064566 356.18582567 275.97875977 348.04052734 C279.57409302 344.46880006 282.99666672 340.8286941 286.265625 336.953125 C289.01720925 333.85449408 291.99657641 330.98310705 294.9453125 328.07421875 C298.26131143 324.78570047 301.36029132 321.37794446 304.390625 317.828125 C306.02586434 315.97062012 307.73481793 314.23393991 309.5 312.5 C313.21210583 308.83716991 316.61438098 304.96413256 320 301 C320.85980469 300.00613281 321.71960938 299.01226562 322.60546875 297.98828125 C327.71179966 292.05478706 332.58436457 286.05001473 337.11328125 279.65625 C338.35505937 277.90799095 339.62290803 276.17791363 340.91796875 274.46875 C359.20466775 250.23248626 367.84872721 225.58469326 369.31762695 195.41918945 C369.62512971 189.32242428 369.906598 183.7611807 372 178 C373.32 178 374.64 178 376 178 C376.4829607 180.01992995 376.96118112 182.04099354 377.4375 184.0625 C377.83775391 185.75052734 377.83775391 185.75052734 378.24609375 187.47265625 C385.12118057 219.63951324 375.13847508 249.84600772 357.7487793 276.73339844 C345.72199829 294.92148035 331.84785636 311.45265992 317.1953125 327.55859375 C315.35036496 329.61035925 313.53568119 331.68243604 311.7265625 333.765625 C307.99445639 338.03778648 304.14349074 342.18749671 300.25 346.3125 C299.55334229 347.05234131 298.85668457 347.79218262 298.13891602 348.55444336 C293.2908432 353.68398475 288.34093194 358.68776575 283.3203125 363.6484375 C280.640024 366.36482416 278.15176382 369.20401901 275.67578125 372.10546875 C273.86022622 374.15801931 271.95240464 376.07746006 270 378 C266.85079119 381.10713922 263.92023033 384.32490304 261.0390625 387.6796875 C258.96446762 390.04043339 256.83517731 392.33947805 254.69018555 394.63598633 C249.6777859 400.00490668 244.87457305 405.46465631 240.2734375 411.1953125 C238.20818326 413.7431691 236.1002561 416.24307353 233.96704102 418.73364258 C223.81331124 430.5993692 214.69405812 443.03119902 206 456 C205.42233887 456.85150635 205.42233887 456.85150635 204.83300781 457.72021484 C182.89588609 490.14184796 167.13191721 527.43211135 166 567 C165.96003906 568.03640625 165.92007813 569.0728125 165.87890625 570.140625 C165.33581818 596.08106716 174.37461751 617.76061279 187 640 C187.33 640 187.66 640 188 640 C187.98428955 639.2064209 187.9685791 638.4128418 187.95239258 637.59521484 C186.82805538 571.833349 211.43792703 515.04849758 252 464 C252.5067627 463.36175293 253.01352539 462.72350586 253.53564453 462.06591797 C259.73721008 454.28367085 266.04709745 446.67524625 272.80859375 439.37109375 C274.72434217 437.29826079 276.59114444 435.19693941 278.4375 433.0625 C282.67770311 428.19119689 287.04960165 423.44118355 291.43164062 418.69775391 C292.50163463 417.53948207 293.57060187 416.38026108 294.63867188 415.22021484 C301.68475697 407.57337972 308.85151232 400.08883737 316.24365234 392.77563477 C319.65277265 389.3901554 322.86420846 385.92550251 325.96484375 382.25390625 C329.01563749 378.8751961 332.26638465 375.7028635 335.5 372.5 C339.91465151 368.12318988 344.26058653 363.76149749 348.2734375 359.0078125 C350.11150974 356.87032577 352.01797484 354.80324677 353.9362793 352.73779297 C359.55069063 346.68798608 364.84043015 340.44520524 370 334 C370.93404903 332.85738016 371.86899094 331.71548981 372.8046875 330.57421875 C404.21550818 292.08061653 425.61656133 250.62582091 425.25 200.125 C425.24623352 199.33330414 425.24246704 198.54160828 425.23858643 197.72592163 C425.16309211 180.77826792 425.16309211 180.77826792 423 164 C422.82758789 163.08879395 422.65517578 162.17758789 422.47753906 161.23876953 C416.84635247 132.68060895 405.65245304 107.51579674 386 86 C384.92685547 84.80310547 384.92685547 84.80310547 383.83203125 83.58203125 C362.57524984 61.04904532 329.69876012 47.09614904 298.85986328 45.87573242 C284.03476252 45.536843 269.45024118 45.38416449 255 49 C254.22462891 49.19335938 253.44925781 49.38671875 252.65039062 49.5859375 C227.03200371 56.21032486 203.81959493 67.77834037 183 84 C181.98808594 84.78632813 180.97617187 85.57265625 179.93359375 86.3828125 C174.62864423 90.61791824 169.81053926 95.11564339 165.08203125 99.98046875 C162.26469652 102.71323058 159.27196454 104.84189573 156 107 C155 104 155 104 156.1171875 101.25 C160.35234088 93.41967197 165.12947654 86.73940549 171 80 C171.8568529 78.91879007 172.71156486 77.83587347 173.5625 76.75 C198.58491812 48.51957956 238.9280812 32.25658214 276 30 C289.39250694 29.50755333 302.80907379 29.42901106 316 32 C316.66370605 32.12890625 317.32741211 32.2578125 318.01123047 32.390625 C341.12020421 37.01135014 363.94144716 46.65161282 382 62 C382.83144531 62.70511719 383.66289063 63.41023438 384.51953125 64.13671875 C387.0677596 66.37193637 389.54020918 68.66789297 392 71 C392.95777344 71.89332031 393.91554688 72.78664063 394.90234375 73.70703125 C426.41432424 103.67810855 441.83605635 147.18530856 443.1796875 190.015625 C444.25197341 243.27421039 423.95382646 293.8104332 391 335 C390.18402344 336.02996094 389.36804688 337.05992187 388.52734375 338.12109375 C383.99504036 343.75649744 379.22266363 349.13459583 374.328125 354.45703125 C372.39305738 356.57067054 370.49791703 358.70659848 368.625 360.875 C364.57404475 365.53312419 360.36963342 370.04896643 356.171875 374.57421875 C354.10987288 376.79711761 352.05779609 379.0284036 350.015625 381.26953125 C344.32588636 387.50097062 338.50083201 393.54845965 332.49975586 399.48095703 C329.76291605 402.19759724 327.11509035 404.92637639 324.625 407.875 C321.14747981 411.98161932 317.32009066 415.71626924 313.5 419.5 C309.12884529 423.8337629 304.83064912 428.15116342 300.859375 432.859375 C298.74766202 435.29050674 296.55297312 437.63123869 294.34814453 439.9777832 C288.27599122 446.44310371 282.53954355 453.06870335 277 460 C275.99512558 461.22660251 274.98849705 462.4517693 273.98046875 463.67578125 C237.09872401 508.52012623 210.30883958 561.22331462 209.76171875 620.52734375 C209.74743584 621.86400841 209.74743584 621.86400841 209.73286438 623.22767639 C209.70835682 626.13098399 209.6958383 629.03410257 209.6875 631.9375 C209.68157837 633.43277222 209.68157837 633.43277222 209.67553711 634.95825195 C209.63929732 654.75305351 211.13731425 674.28246755 213.39021301 693.9389801 C213.84382001 697.9825274 214.08984791 701.93117339 214 706 C209.84707918 706 209.42158734 705.93263772 206.40234375 703.5703125 C205.6973877 703.03132324 204.99243164 702.49233398 204.26611328 701.93701172 C203.4976709 701.33904785 202.72922852 700.74108398 201.9375 700.125 C129.07264186 645.04323359 49.61332066 626.62498062 -40 621 C-41.20072269 620.92415806 -42.40144539 620.84831612 -43.63855362 620.77017593 C-53.36315088 620.16944853 -63.08322166 619.72100803 -72.82348633 619.45507812 C-73.57010139 619.43427972 -74.31671645 619.41348131 -75.08595622 619.39205265 C-97.13381596 618.79438218 -119.18915369 618.79210843 -141.24357963 618.72960854 C-147.33816656 618.71112628 -153.43273015 618.68683 -159.52729797 618.66296387 C-177.5456833 618.59345581 -195.56409862 618.53338555 -213.58251953 618.47393799 C-227.69294923 618.42723593 -241.8033633 618.3782062 -255.91376048 618.32245111 C-263.15074062 618.29412256 -270.38771606 618.2705272 -277.62472379 618.25052643 C-282.09340815 618.23719358 -286.56206964 618.21978447 -291.03073502 618.20121574 C-293.10892603 618.19343052 -295.1871243 618.18737382 -297.26532555 618.18312263 C-300.08758282 618.17711967 -302.90975009 618.16509511 -305.73197937 618.15148926 C-306.56440979 618.15119327 -307.39684021 618.15089728 -308.2544958 618.15059233 C-313.88590072 618.11409928 -313.88590072 618.11409928 -315 617 C-314.95741734 614.39459351 -314.8499241 611.82218923 -314.6953125 609.22265625 C-314.65187714 608.42331161 -314.60844177 607.62396698 -314.56369019 606.80039978 C-314.42236247 604.22080151 -314.27378483 601.64167786 -314.125 599.0625 C-314.03207398 597.38869835 -313.9396209 595.71487037 -313.84765625 594.04101562 C-313.1230456 580.93497251 -313.1230456 580.93497251 -312.71484375 574.41113281 C-312.09370945 564.29412659 -311.78420535 554.20229284 -311.75976562 544.06591797 C-311.74991925 541.60481669 -311.71865695 539.14450618 -311.6875 536.68359375 C-311.49547546 508.34914856 -325.87892059 484.6555931 -343 463 C-344.12535156 461.55367187 -344.12535156 461.55367187 -345.2734375 460.078125 C-353.64239346 449.56248517 -362.9893127 439.66075595 -372.7421875 430.41796875 C-374 429 -374 429 -374 427 C-374.55848633 426.76821045 -375.11697266 426.5364209 -375.69238281 426.29760742 C-378.60499328 424.65980329 -380.58190794 422.62461285 -382.921875 420.23828125 C-383.38555481 419.76939987 -383.84923462 419.30051849 -384.32696533 418.81742859 C-385.80617025 417.32048402 -387.27852701 415.81704251 -388.75 414.3125 C-394.97414715 407.96921554 -401.22611136 401.76202553 -408 396 C-409.60768373 394.54554483 -411.21239715 393.08779105 -412.8125 391.625 C-416.22312012 388.53672508 -419.70889971 385.60983395 -423.3125 382.75 C-428.29128225 378.73030328 -432.78569723 374.36798527 -437.23364258 369.78027344 C-439.99961434 366.93961734 -442.82244036 364.24767162 -445.828125 361.66015625 C-450.44965679 357.66685273 -454.75621327 353.39070168 -459.0625 349.0625 C-460.2081543 347.92264648 -460.2081543 347.92264648 -461.37695312 346.75976562 C-465.57209409 342.55744734 -469.59631794 338.26745949 -473.46948242 333.7668457 C-475.45789287 331.47140362 -477.54311105 329.27312766 -479.625 327.0625 C-517.97986935 284.86632356 -535.6486766 234.85316406 -533 178 C-531.58027117 158.61883347 -527.03461073 139.70219677 -519 122 C-518.70754395 121.35466309 -518.41508789 120.70932617 -518.11376953 120.04443359 C-507.85237571 97.77791518 -492.29771595 76.31163036 -473 61 C-472.47374023 60.57783203 -471.94748047 60.15566406 -471.40527344 59.72070312 C-450.35405435 42.95790825 -427.20018526 31.21291158 -401 25 C-399.7521875 24.6803125 -398.504375 24.360625 -397.21875 24.03125 C-377.72939393 19.75309867 -354.29551001 19.96902409 -335 25 C-334.30986816 25.17160645 -333.61973633 25.34321289 -332.90869141 25.52001953 C-322.35478577 28.17689701 -312.6408244 31.97056912 -303 37 C-302.39526855 37.31340332 -301.79053711 37.62680664 -301.16748047 37.94970703 C-287.78215286 44.98388801 -276.93888466 54.70367919 -266 65 C-265.23300781 65.71285156 -264.46601563 66.42570312 -263.67578125 67.16015625 C-259.13004807 71.51540157 -254.70989633 76.25139147 -252 82 C-252.33 82.99 -252.66 83.98 -253 85 C-256.73410472 83.67860027 -259.44800894 82.07621182 -262.5 79.5625 C-263.37527344 78.84964844 -264.25054687 78.13679688 -265.15234375 77.40234375 C-267.10516485 75.75490208 -269.03393922 74.07865443 -270.94140625 72.37890625 C-289.47533599 55.91379806 -312.76182244 44.94429082 -337 40 C-338.32499512 39.72506714 -338.32499512 39.72506714 -339.67675781 39.44458008 C-348.01595795 37.87484003 -356.28891103 37.55871149 -364.75 37.5625 C-365.82849213 37.56139725 -365.82849213 37.56139725 -366.92877197 37.56027222 C-407.29295324 37.66792342 -445.00932964 55.1047143 -473.46191406 83.43164062 C-503.19582341 113.75078882 -516.69445824 153.42110111 -516.35375977 195.34985352 C-515.67160229 235.10191309 -503.19177962 269.99371418 -478.48193359 301.13183594 C-477.22381821 302.71784893 -475.979524 304.31481018 -474.73828125 305.9140625 C-470.58750184 311.21830394 -466.16184944 316.21929761 -461.58984375 321.1640625 C-459.61303435 323.32871352 -457.69170168 325.51648439 -455.78125 327.73828125 C-451.58076788 332.55342654 -447.08994648 337.05662992 -442.5625 341.5625 C-441.75490234 342.37396484 -440.94730469 343.18542969 -440.11523438 344.02148438 C-436.54194174 347.58901828 -432.9600074 351.08945764 -429.12109375 354.37109375 C-423.07800455 359.5684369 -417.58479119 365.35970534 -411.99072266 371.02978516 C-405.282797 377.87586994 -405.282797 377.87586994 -398.19140625 384.31640625 C-392.28049983 389.36925342 -386.87684137 394.97483018 -381.39086914 400.47875977 C-379.4420313 402.43295624 -377.48790728 404.38175147 -375.53320312 406.33007812 C-369.96944264 411.89121989 -364.4508025 417.43172117 -359.35473633 423.43139648 C-357.40367409 425.69046566 -355.27578741 427.74499224 -353.125 429.8125 C-348.85498582 434.03736297 -345.02529725 438.46300768 -341.28125 443.15625 C-338.90953115 446.11277623 -336.45907473 448.99090001 -334 451.875 C-320.83110749 467.71850479 -310.71137322 484.12124668 -309 505 C-308.34 505 -307.68 505 -307 505 C-306.54479108 502.93405182 -306.09068805 500.86785655 -305.640625 498.80078125 C-305.2046131 496.89455851 -304.73440993 494.99590694 -304.234375 493.10546875 C-297.43556275 466.6100975 -303.04636388 441.56298004 -316 418 C-316.59039062 416.90558594 -317.18078125 415.81117188 -317.7890625 414.68359375 C-323.811325 403.91776833 -331.73329404 395.07834619 -340 386 C-342.36182289 383.35725545 -344.68831962 380.68667576 -347 378 C-347.62237549 377.28312012 -347.62237549 377.28312012 -348.25732422 376.55175781 C-349.63753138 374.95757654 -351.00710127 373.35474853 -352.375 371.75 C-353.22835937 370.75484375 -354.08171875 369.7596875 -354.9609375 368.734375 C-356.76809291 366.31098652 -357.6217088 364.9422649 -358 362 C-357.01 361.67 -356.02 361.34 -355 361 C-352.79573146 362.11600729 -350.85703921 363.26064907 -348.8125 364.625 C-348.20390137 365.02380371 -347.59530273 365.42260742 -346.96826172 365.83349609 C-337.016868 372.50898085 -327.72420149 380.34679865 -318.83203125 388.3671875 C-317.5037683 389.55101247 -316.14210219 390.697697 -314.76171875 391.8203125 C-297.33018604 406.44389496 -287.07215228 426.49401877 -279.3125 447.46484375 C-278.15135625 450.78723727 -278.15135625 450.78723727 -277 453 C-275.13793184 453.00548927 -275.13793184 453.00548927 -273 452 C-271.35393825 449.79630501 -269.9248709 447.65162942 -268.5 445.3125 C-260.10862376 432.26250572 -249.67810943 421.50983959 -238.75 410.5625 C-238.23048767 410.04180939 -237.71097534 409.52111877 -237.17572021 408.98464966 C-231.84883904 403.6591343 -226.48579261 398.42076727 -220.76123047 393.51831055 C-217.99525858 391.1338388 -215.35057314 388.62294412 -212.6875 386.125 C-207.91935745 381.68857231 -203.02482743 377.49005818 -197.9453125 373.41015625 C-194.40081665 370.50968683 -190.95040265 367.51121334 -187.5 364.5 C-181.42781346 359.2113214 -175.27248707 354.05068575 -169 349 C-167.87344368 348.07973822 -166.74715688 347.15914644 -165.62109375 346.23828125 C-147.53670019 331.51972968 -128.49863194 318.15522423 -108 307 C-108.56162179 301.30091984 -110.76995907 296.78825646 -113.1875 291.6875 C-124.52434708 266.93253693 -130.22751524 241.55297387 -130.25 214.25 C-130.25067474 213.51423737 -130.25134949 212.77847473 -130.25204468 212.02041626 C-130.23473499 200.11572217 -129.54165618 188.65442346 -127 177 C-126.82839355 176.18853516 -126.65678711 175.37707031 -126.47998047 174.54101562 C-121.13217858 149.8235613 -111.40043083 128.70017163 -96.93481445 108.01147461 C-94.23207686 104.10161925 -92.2312959 100.66133448 -91 96 C-111.544747 101.10938925 -129.44600163 111.95916322 -141 130 C-152.53770243 149.60267066 -153.98577646 170.82527962 -155.21533203 193.01025391 C-155.32530518 194.83435791 -155.32530518 194.83435791 -155.4375 196.6953125 C-155.49808594 197.78859863 -155.55867188 198.88188477 -155.62109375 200.00830078 C-155.99964975 202.99723459 -156.83558989 205.24136861 -158 208 C-167.41503745 208.18783077 -176.75748877 207.59843769 -186.14453125 206.9765625 C-187.80245001 206.86902423 -189.46038391 206.76171904 -191.11833191 206.65463257 C-194.58546939 206.42990031 -198.05243299 206.2026938 -201.51928711 205.97363281 C-205.89477177 205.68468381 -210.27060116 205.4014095 -214.64656258 205.11978531 C-245.12942518 203.15514504 -245.12942518 203.15514504 -259.07421875 201.9609375 C-259.92297073 201.89242584 -260.77172272 201.82391418 -261.64619446 201.75332642 C-266.03254058 201.35324543 -269.85207228 200.59647323 -274 199 C-273.46963651 194.27150456 -272.93645479 189.54333759 -272.40087891 184.81542969 C-272.21980254 183.2136249 -272.03944042 181.61173918 -271.85986328 180.00976562 C-270.84313193 170.9443844 -269.75619657 161.90741784 -268.39331055 152.88647461 C-266.83276448 141.433752 -269.38190259 133.67175753 -276.18359375 124.359375 C-276.78300781 123.58078125 -277.38242187 122.8021875 -278 122 C-278.6290625 121.16726562 -279.258125 120.33453125 -279.90625 119.4765625 C-296.54462336 99.79609849 -328.89468393 85.8566231 -354.28466797 83.72412109 C-359.09324358 83.42928386 -363.90168625 83.17235107 -368.71484375 82.96484375 C-369.88144531 82.89652344 -371.04804688 82.82820313 -372.25 82.7578125 C-373.83554687 82.68264404 -373.83554687 82.68264404 -375.453125 82.60595703 C-378 82 -378 82 -379.359375 79.95263672 C-379.57078125 79.3082666 -379.7821875 78.66389648 -380 78 C-359.3538204 67.25981566 -332.97207784 71.87960356 -311.52441406 78.18896484 C-304.11856557 80.56829064 -297.03824406 83.70919174 -290 87 C-288.44539063 87.70576172 -288.44539063 87.70576172 -286.859375 88.42578125 C-279.7076071 91.9702978 -273.981269 97.01532619 -268.06640625 102.29296875 C-263.3004771 106.84923257 -263.3004771 106.84923257 -257 108 C-256.4126709 106.732771 -256.4126709 106.732771 -255.81347656 105.43994141 C-246.00199584 84.39365657 -236.26352731 64.89717123 -220 48 C-219.11180285 46.92746005 -218.23409534 45.84598874 -217.375 44.75 C-207.55030868 33.37404162 -193.92407549 24.43247182 -181 17 C-179.86175781 16.34257813 -178.72351563 15.68515625 -177.55078125 15.0078125 C-124.61088167 -14.78492223 -57.13041097 -20.70315669 0 0 Z M-56 122 C-77.38744634 143.56844024 -89.01085389 176.95509189 -89.203125 207.0234375 C-89.21022995 207.76245804 -89.2173349 208.50147858 -89.22465515 209.26289368 C-89.55063385 231.32263496 -89.55063385 231.32263496 -86 253 C-85.60554688 254.52633057 -85.60554688 254.52633057 -85.203125 256.08349609 C-82.09360979 269.40236531 -82.09360979 269.40236531 -77 282 C-73.07023928 282.32868847 -70.75098975 282.49090185 -67.39453125 280.296875 C-66.54246094 279.45640625 -65.69039063 278.6159375 -64.8125 277.75 C-64.08196411 277.04037109 -64.08196411 277.04037109 -63.33666992 276.31640625 C-62.20722092 275.21201067 -61.08652958 274.09861868 -59.97265625 272.97851562 C-57.6998793 270.69898785 -55.39707323 268.45177517 -53.09375 266.203125 C-44.56643122 257.8314983 -36.22085704 249.54028384 -29 240 C-28.18660156 238.99195313 -27.37320313 237.98390625 -26.53515625 236.9453125 C-8.99622971 215.10762945 3.49866499 187.83501984 1.78125 159.375 C-0.32670903 141.21412216 -8.83832771 122.33935845 -23.0625 110.4375 C-36.14874982 104.03359051 -46.6957435 113.44621929 -56 122 Z M-90.41137695 433.11254883 C-93.79967237 435.99770008 -97.22864702 438.82497616 -100.6875 441.625 C-105.13903808 445.24834495 -109.42382455 449.01963872 -113.66796875 452.8828125 C-115.75823889 454.78051169 -117.86986115 456.64733415 -120 458.5 C-123.89719074 461.89432742 -127.7328797 465.35438438 -131.56640625 468.8203125 C-133.66700615 470.70174868 -135.79412051 472.54282694 -137.9375 474.375 C-141.36904392 477.37760093 -144.67580746 480.50219988 -147.9375 483.6875 C-148.87464844 484.59886719 -149.81179688 485.51023437 -150.77734375 486.44921875 C-152.83252233 488.80779803 -153.66462176 489.95305302 -154 493 C-147.21565293 494.26918903 -140.49949228 494.09101499 -133.6171875 494.02734375 C-131.60927406 494.0165935 -129.60136036 494.00586395 -127.59344196 493.99608231 C-125.4730626 493.98543469 -123.35269895 493.97294929 -121.23233032 493.96035767 C-96.09958401 493.82017868 -71.06519201 493.9356578 -46 496 C-44.10217773 496.15275391 -44.10217773 496.15275391 -42.16601562 496.30859375 C-15.72794999 498.52430334 10.53432701 502.43389831 36 510 C36.78729492 510.23299805 37.57458984 510.46599609 38.38574219 510.70605469 C48.63130622 513.79847908 58.41937025 517.73498227 68.18603516 522.10473633 C69.03085449 522.48009521 69.87567383 522.8554541 70.74609375 523.2421875 C71.49560303 523.5810498 72.2451123 523.91991211 73.01733398 524.26904297 C75.11694694 525.17295708 75.11694694 525.17295708 78 525 C77.62553773 519.93539776 74.89482392 517.27301684 71.5 513.8125 C70.40172679 512.66074424 69.3040762 511.50839448 68.20703125 510.35546875 C67.66256348 509.78876465 67.1180957 509.22206055 66.55712891 508.63818359 C64.38008611 506.34781716 62.28379071 503.98921042 60.1875 501.625 C57.147288 498.22872714 54.0137945 494.98038002 50.75854492 491.79150391 C49.11619057 490.11836824 47.61062324 488.39458893 46.1015625 486.6015625 C40.7276802 480.42166881 34.82141133 474.75311545 29 469 C15.74817131 455.90363969 15.74817131 455.90363969 10.4140625 449.63671875 C8.39531725 447.30010477 6.21141011 445.15321511 4 443 C1.06881809 440.10408042 -1.76403174 437.19757429 -4.4375 434.0625 C-7.30178125 430.71068152 -10.36410176 427.59526139 -13.5 424.5 C-20.49447921 417.56790843 -26.67247815 410.29028735 -32.53735352 402.39111328 C-34.56204982 399.6987622 -36.16489333 397.89007111 -39 396 C-54.42300936 396 -78.76201447 423.18506494 -90.41137695 433.11254883 Z " fill="#FBFBFB" transform="translate(566,59)"/>
<path d="M0 0 C0.99 0.33 1.98 0.66 3 1 C5.1399237 7.32417314 5.42488949 13.6254318 5.8125 20.25 C7.11587636 38.96956778 9.88907303 58.19221281 16 76 C16.22349121 76.68191406 16.44698242 77.36382812 16.67724609 78.06640625 C23.75420152 99.52586239 34.00932495 118.15606958 49.19921875 134.8984375 C51.83086455 137.96964236 54.44354878 141.24070253 56 145 C55.67 145.99 55.34 146.98 55 148 C48.99394725 147.14493589 46.2676276 144.08361713 42 140 C40.63294922 138.74509766 40.63294922 138.74509766 39.23828125 137.46484375 C26.38917077 125.40775797 17.1720246 111.00509453 10 95 C9.65984863 94.25492187 9.31969727 93.50984375 8.96923828 92.7421875 C-2.89192263 66.58091788 -11.94746222 34.42568245 -3 6 C-2.0430701 3.97903855 -1.05395244 1.97210148 0 0 Z " fill="#F9F9F9" transform="translate(104,219)"/>
<path d="M0 0 C0.33 0.66 0.66 1.32 1 2 C-0.35736377 4.52866195 -1.76587618 6.90229331 -3.3125 9.3125 C-3.76093262 10.02148438 -4.20936523 10.73046875 -4.67138672 11.4609375 C-9.05540383 18.28492793 -13.918176 24.68556337 -19 31 C-19.33 30.01 -19.66 29.02 -20 28 C-19.13671875 26.44921875 -19.13671875 26.44921875 -17.6875 24.6875 C-14.62947858 20.8273746 -11.72912172 16.88661198 -8.875 12.875 C-8.45565186 12.28936279 -8.03630371 11.70372559 -7.60424805 11.1003418 C-4.99606489 7.44620873 -2.4718881 3.74770131 0 0 Z " fill="#EDEDED" transform="translate(655,326)"/>
<path d="M0 0 C6.7281627 -0.22262303 12.53991163 0.04978464 19 2 C19 3.32 19 4.64 19 6 C18.01 6.66 17.02 7.32 16 8 C15.67 6.68 15.34 5.36 15 4 C7.575 3.01 7.575 3.01 0 2 C0 1.34 0 0.68 0 0 Z " fill="#E3E2E0" transform="translate(821,152)"/>
<path d="M0 0 C0.66 0.33 1.32 0.66 2 1 C0.00499612 5.38005659 -2.2260301 8.66798236 -5.5 12.1875 C-6.2734375 13.02667969 -7.046875 13.86585938 -7.84375 14.73046875 C-9.53861674 16.51437741 -11.24624516 18.27435021 -13 20 C-11.62253597 16.00321317 -9.77229751 13.22955383 -7.0625 10 C-4.38164689 6.79299815 -2.07055271 3.63482608 0 0 Z " fill="#E6E5E6" transform="translate(912,326)"/>
<path d="M0 0 C0.66 0.33 1.32 0.66 2 1 C-0.17768682 5.01152836 -2.74487646 7.8223794 -6 11 C-7.71085681 12.96725224 -9.35382377 14.97755492 -11 17 C-11 13.62270847 -10.62588793 13.16161118 -8.59375 10.64453125 C-8.09746094 10.02255859 -7.60117187 9.40058594 -7.08984375 8.75976562 C-6.56519531 8.11716797 -6.04054688 7.47457031 -5.5 6.8125 C-4.71302734 5.83120117 -4.71302734 5.83120117 -3.91015625 4.83007812 C-2.61324419 3.2148331 -1.30745336 1.60672434 0 0 Z " fill="#E6E6E6" transform="translate(779,475)"/>
<path d="M0 0 C0 3.44360632 -0.79591532 4.74795392 -2.5 7.6875 C-2.9640625 8.49574219 -3.428125 9.30398438 -3.90625 10.13671875 C-4.2671875 10.75160156 -4.628125 11.36648438 -5 12 C-6.34780093 9.30439815 -5.67336458 8.257383 -4.75 5.4375 C-4.37101563 4.22900391 -4.37101563 4.22900391 -3.984375 2.99609375 C-3.65953125 2.33738281 -3.3346875 1.67867187 -3 1 C-2.01 0.67 -1.02 0.34 0 0 Z " fill="#EFF0F0" transform="translate(761,529)"/>
<path d="M0 0 C0 4.31618166 -2.13270348 5.92789659 -5 9 C-5.66 9 -6.32 9 -7 9 C-5.44499019 5.18315774 -2.96404505 2.80804268 0 0 Z " fill="#DEDEDF" transform="translate(507,183)"/>
<path d="M0 0 C0 3.99904969 -1.72586967 5.80200422 -4 9 C-4.33 8.01 -4.66 7.02 -5 6 C-3.59554165 3.7363436 -1.8032087 1.9791315 0 0 Z " fill="#F0F1F2" transform="translate(920,338)"/>
</svg>
