 <svg  version="1.0" xmlns="http://www.w3.org/2000/svg"  width="300.000000pt" height="300.000000pt" viewBox="0 0 300.000000 300.000000"  preserveAspectRatio="xMidYMid meet">  <g transform="translate(0.000000,300.000000) scale(0.050000,-0.050000)" fill="#ffffff" stroke="none"> <path d="M2710 5101 c-393 -64 -691 -262 -832 -554 -36 -76 -68 -141 -71 -145 -3 -4 -41 24 -84 63 -142 128 -464 199 -613 135 -51 -22 -47 -23 110 -32 261 -15 558 -229 533 -385 -6 -40 -18 -124 -25 -185 l-13 -113 108 -12 c59 -6 211 -17 339 -24 l232 -13 11 158 c17 256 106 394 306 478 102 42 103 29 10 -104 -193 -274 -218 -720 -59 -1033 26 -50 35 -86 22 -90 -155 -52 -811 -607 -919 -778 -68 -108 -68 -108 -111 12 -47 134 -139 248 -290 364 -174 134 -191 121 -46 -34 213 -227 285 -454 215 -669 -22 -68 -30 -78 -31 -40 -7 173 -139 335 -742 910 -336 320 -456 535 -475 852 -48 807 867 1280 1462 756 122 -107 120 -63 -2 59 -559 559 -1546 86 -1548 -741 -1 -426 147 -680 663 -1140 334 -297 494 -476 576 -645 71 -144 73 -165 53 -486 l-15 -225 821 0 c1361 0 1738 -94 2211 -551 97 -93 100 -88 51 81 -169 583 -1 1022 643 1680 375 384 507 550 597 753 383 856 -270 1687 -1111 1415 -180 -59 -369 -207 -439 -345 l-32 -63 78 73 c622 584 1478 296 1521 -513 24 -435 -108 -681 -674 -1256 -669 -681 -814 -1081 -627 -1734 12 -42 -2 -34 -90 49 -446 427 -818 513 -2190 510 -362 0 -662 3 -667 8 -21 21 37 374 83 509 130 383 314 572 1107 1134 478 339 639 541 659 831 25 345 -172 547 -535 548 -342 2 -520 -165 -570 -534 l-12 -95 -86 0 c-406 0 -417 9 -360 266 240 1076 1895 1097 2072 26 77 -462 -186 -902 -805 -1353 -554 -403 -648 -483 -818 -699 l-86 -110 527 -13 c837 -19 1228 -176 1499 -599 79 -122 82 -119 58 43 -70 479 99 830 691 1439 463 475 585 698 542 985 -20 131 -41 119 -45 -25 -9 -280 -108 -438 -582 -924 -497 -510 -635 -730 -687 -1097 l-25 -174 -51 62 c-29 35 -195 215 -369 401 -297 316 -553 617 -553 649 0 7 86 84 190 170 480 396 722 945 588 1331 -61 173 117 2 213 -206 l64 -137 50 109 c89 196 284 335 510 366 118 15 123 50 8 50 -185 0 -405 -94 -522 -223 l-53 -57 -42 85 c-57 117 -195 268 -315 346 -56 36 -148 111 -205 166 -228 222 -646 341 -996 284z m561 -811 c126 -215 41 -498 -227 -761 -182 -179 -170 -178 -215 -24 -99 345 -1 730 225 884 87 59 138 36 217 -99z m-143 -1600 c18 -27 178 -199 355 -380 347 -355 361 -377 195 -301 -229 104 -579 156 -1024 150 -130 -2 -240 0 -245 5 -23 24 613 567 674 574 7 1 27 -20 45 -48z"/> <path d="M609 4110 c-88 -186 14 -562 210 -775 107 -115 165 -120 64 -5 -139 158 -223 379 -242 630 -10 142 -18 180 -32 150z"/> </g> </svg> 