<?xml version="1.0" encoding="UTF-8"?>
<svg xmlns="http://www.w3.org/2000/svg" xmlns:xlink="http://www.w3.org/1999/xlink" width="5815.15" height="2622.28" viewBox="0 0 5815.15 2622.28">
<defs>
<clipPath id="clip-0">

</clipPath>
<clipPath id="clip-1">
<path clip-rule="nonzero" d="M 507 363 L 1438 363 L 1438 2244 L 507 2244 Z M 507 363 "/>
</clipPath>
<clipPath id="clip-2">
<path clip-rule="nonzero" d="M 1328.890625 2243.128906 L 616.078125 2243.128906 C 555.867188 2243.128906 507.058594 2194.320312 507.058594 2134.109375 L 507.058594 472.089844 C 507.058594 411.878906 555.867188 363.070312 616.078125 363.070312 L 1328.890625 363.070312 C 1389.101562 363.070312 1437.910156 411.878906 1437.910156 472.089844 L 1437.910156 2134.109375 C 1437.910156 2194.320312 1389.101562 2243.128906 1328.890625 2243.128906 Z M 1328.890625 2243.128906 "/>
</clipPath>
<clipPath id="clip-3">
<path clip-rule="nonzero" d="M 1328.890625 2243.128906 L 616.078125 2243.128906 C 555.867188 2243.128906 507.058594 2194.320312 507.058594 2134.109375 L 507.058594 472.089844 C 507.058594 411.878906 555.867188 363.070312 616.078125 363.070312 L 1328.890625 363.070312 C 1389.101562 363.070312 1437.910156 411.878906 1437.910156 472.089844 L 1437.910156 2134.109375 C 1437.910156 2194.320312 1389.101562 2243.128906 1328.890625 2243.128906 "/>
</clipPath>
<linearGradient id="linear-pattern-0" gradientUnits="userSpaceOnUse" x1="0.100479" y1="0" x2="0.886109" y2="0" gradientTransform="matrix(1471.77, -2201.22, 2201.22, 1471.77, 246.471, 2388.95)">
<stop offset="0" stop-color="rgb(93.087769%, 93.34259%, 93.598938%)" stop-opacity="1"/>
<stop offset="0.0078125" stop-color="rgb(93.188477%, 93.440247%, 93.692017%)" stop-opacity="1"/>
<stop offset="0.015625" stop-color="rgb(93.388367%, 93.634033%, 93.878174%)" stop-opacity="1"/>
<stop offset="0.0234375" stop-color="rgb(93.588257%, 93.824768%, 94.062805%)" stop-opacity="1"/>
<stop offset="0.03125" stop-color="rgb(93.783569%, 94.013977%, 94.244385%)" stop-opacity="1"/>
<stop offset="0.046875" stop-color="rgb(94.07196%, 94.291687%, 94.511414%)" stop-opacity="1"/>
<stop offset="0.0625" stop-color="rgb(94.448853%, 94.654846%, 94.859314%)" stop-opacity="1"/>
<stop offset="0.078125" stop-color="rgb(94.815063%, 95.005798%, 95.198059%)" stop-opacity="1"/>
<stop offset="0.09375" stop-color="rgb(95.169067%, 95.347595%, 95.527649%)" stop-opacity="1"/>
<stop offset="0.109375" stop-color="rgb(95.513916%, 95.680237%, 95.846558%)" stop-opacity="1"/>
<stop offset="0.125" stop-color="rgb(95.846558%, 96.000671%, 96.154785%)" stop-opacity="1"/>
<stop offset="0.140625" stop-color="rgb(96.168518%, 96.310425%, 96.452332%)" stop-opacity="1"/>
<stop offset="0.15625" stop-color="rgb(96.479797%, 96.609497%, 96.740723%)" stop-opacity="1"/>
<stop offset="0.171875" stop-color="rgb(96.77887%, 96.897888%, 97.018433%)" stop-opacity="1"/>
<stop offset="0.1875" stop-color="rgb(97.067261%, 97.175598%, 97.283936%)" stop-opacity="1"/>
<stop offset="0.203125" stop-color="rgb(97.343445%, 97.441101%, 97.540283%)" stop-opacity="1"/>
<stop offset="0.21875" stop-color="rgb(97.607422%, 97.695923%, 97.784424%)" stop-opacity="1"/>
<stop offset="0.234375" stop-color="rgb(97.860718%, 97.940063%, 98.019409%)" stop-opacity="1"/>
<stop offset="0.25" stop-color="rgb(98.100281%, 98.171997%, 98.242188%)" stop-opacity="1"/>
<stop offset="0.265625" stop-color="rgb(98.329163%, 98.390198%, 98.452759%)" stop-opacity="1"/>
<stop offset="0.28125" stop-color="rgb(98.544312%, 98.597717%, 98.651123%)" stop-opacity="1"/>
<stop offset="0.3125" stop-color="rgb(98.838806%, 98.880005%, 98.924255%)" stop-opacity="1"/>
<stop offset="0.34375" stop-color="rgb(99.189758%, 99.21875%, 99.249268%)" stop-opacity="1"/>
<stop offset="0.375" stop-color="rgb(99.484253%, 99.502563%, 99.5224%)" stop-opacity="1"/>
<stop offset="0.5" stop-color="rgb(99.80011%, 99.806213%, 99.815369%)" stop-opacity="1"/>
<stop offset="0.625" stop-color="rgb(99.798584%, 99.798584%, 99.807739%)" stop-opacity="1"/>
<stop offset="0.65625" stop-color="rgb(99.525452%, 99.525452%, 99.546814%)" stop-opacity="1"/>
<stop offset="0.6875" stop-color="rgb(99.328613%, 99.328613%, 99.357605%)" stop-opacity="1"/>
<stop offset="0.71875" stop-color="rgb(99.092102%, 99.092102%, 99.133301%)" stop-opacity="1"/>
<stop offset="0.75" stop-color="rgb(98.81897%, 98.81897%, 98.872375%)" stop-opacity="1"/>
<stop offset="0.78125" stop-color="rgb(98.506165%, 98.506165%, 98.574829%)" stop-opacity="1"/>
<stop offset="0.8125" stop-color="rgb(98.153687%, 98.153687%, 98.23761%)" stop-opacity="1"/>
<stop offset="0.828125" stop-color="rgb(97.866821%, 97.866821%, 97.962952%)" stop-opacity="1"/>
<stop offset="0.84375" stop-color="rgb(97.659302%, 97.659302%, 97.766113%)" stop-opacity="1"/>
<stop offset="0.859375" stop-color="rgb(97.442627%, 97.442627%, 97.558594%)" stop-opacity="1"/>
<stop offset="0.875" stop-color="rgb(97.213745%, 97.213745%, 97.340393%)" stop-opacity="1"/>
<stop offset="0.890625" stop-color="rgb(96.975708%, 96.975708%, 97.114563%)" stop-opacity="1"/>
<stop offset="0.90625" stop-color="rgb(96.728516%, 96.728516%, 96.876526%)" stop-opacity="1"/>
<stop offset="0.921875" stop-color="rgb(96.469116%, 96.469116%, 96.629333%)" stop-opacity="1"/>
<stop offset="0.9375" stop-color="rgb(96.199036%, 96.199036%, 96.37146%)" stop-opacity="1"/>
<stop offset="0.953125" stop-color="rgb(95.918274%, 95.918274%, 96.104431%)" stop-opacity="1"/>
<stop offset="0.96875" stop-color="rgb(95.626831%, 95.626831%, 95.826721%)" stop-opacity="1"/>
<stop offset="0.984375" stop-color="rgb(95.324707%, 95.324707%, 95.53833%)" stop-opacity="1"/>
<stop offset="1" stop-color="rgb(95.011902%, 95.011902%, 95.239258%)" stop-opacity="1"/>
</linearGradient>
<clipPath id="clip-4">
<path clip-rule="nonzero" d="M 1938 0 L 3877 0 L 3877 2622.28125 L 1938 2622.28125 Z M 1938 0 "/>
</clipPath>
<clipPath id="clip-5">
<path clip-rule="nonzero" d="M 2445 363 L 3377 363 L 3377 2244 L 2445 2244 Z M 2445 363 "/>
</clipPath>
<clipPath id="clip-6">
<path clip-rule="nonzero" d="M 3267.28125 2243.128906 L 2554.460938 2243.128906 C 2494.25 2243.128906 2445.441406 2194.320312 2445.441406 2134.109375 L 2445.441406 472.089844 C 2445.441406 411.878906 2494.25 363.070312 2554.460938 363.070312 L 3267.28125 363.070312 C 3327.488281 363.070312 3376.300781 411.878906 3376.300781 472.089844 L 3376.300781 2134.109375 C 3376.300781 2194.320312 3327.488281 2243.128906 3267.28125 2243.128906 Z M 3267.28125 2243.128906 "/>
</clipPath>
<clipPath id="clip-7">
<path clip-rule="nonzero" d="M 3267.28125 2243.128906 L 2554.460938 2243.128906 C 2494.25 2243.128906 2445.441406 2194.320312 2445.441406 2134.109375 L 2445.441406 472.089844 C 2445.441406 411.878906 2494.25 363.070312 2554.460938 363.070312 L 3267.28125 363.070312 C 3327.488281 363.070312 3376.300781 411.878906 3376.300781 472.089844 L 3376.300781 2134.109375 C 3376.300781 2194.320312 3327.488281 2243.128906 3267.28125 2243.128906 "/>
</clipPath>
<linearGradient id="linear-pattern-1" gradientUnits="userSpaceOnUse" x1="0.10048" y1="0" x2="0.886111" y2="0" gradientTransform="matrix(1471.77, -2201.22, 2201.22, 1471.77, 2184.85, 2388.95)">
<stop offset="0" stop-color="rgb(93.087769%, 93.34259%, 93.598938%)" stop-opacity="1"/>
<stop offset="0.0078125" stop-color="rgb(93.188477%, 93.440247%, 93.692017%)" stop-opacity="1"/>
<stop offset="0.015625" stop-color="rgb(93.388367%, 93.634033%, 93.878174%)" stop-opacity="1"/>
<stop offset="0.0234375" stop-color="rgb(93.588257%, 93.824768%, 94.062805%)" stop-opacity="1"/>
<stop offset="0.03125" stop-color="rgb(93.783569%, 94.013977%, 94.244385%)" stop-opacity="1"/>
<stop offset="0.046875" stop-color="rgb(94.07196%, 94.291687%, 94.511414%)" stop-opacity="1"/>
<stop offset="0.0625" stop-color="rgb(94.448853%, 94.654846%, 94.859314%)" stop-opacity="1"/>
<stop offset="0.078125" stop-color="rgb(94.815063%, 95.005798%, 95.198059%)" stop-opacity="1"/>
<stop offset="0.09375" stop-color="rgb(95.169067%, 95.347595%, 95.527649%)" stop-opacity="1"/>
<stop offset="0.109375" stop-color="rgb(95.513916%, 95.680237%, 95.846558%)" stop-opacity="1"/>
<stop offset="0.125" stop-color="rgb(95.846558%, 96.000671%, 96.154785%)" stop-opacity="1"/>
<stop offset="0.140625" stop-color="rgb(96.168518%, 96.310425%, 96.452332%)" stop-opacity="1"/>
<stop offset="0.15625" stop-color="rgb(96.479797%, 96.609497%, 96.740723%)" stop-opacity="1"/>
<stop offset="0.171875" stop-color="rgb(96.77887%, 96.897888%, 97.018433%)" stop-opacity="1"/>
<stop offset="0.1875" stop-color="rgb(97.067261%, 97.175598%, 97.283936%)" stop-opacity="1"/>
<stop offset="0.203125" stop-color="rgb(97.343445%, 97.441101%, 97.540283%)" stop-opacity="1"/>
<stop offset="0.21875" stop-color="rgb(97.607422%, 97.695923%, 97.784424%)" stop-opacity="1"/>
<stop offset="0.234375" stop-color="rgb(97.860718%, 97.940063%, 98.019409%)" stop-opacity="1"/>
<stop offset="0.25" stop-color="rgb(98.100281%, 98.171997%, 98.242188%)" stop-opacity="1"/>
<stop offset="0.265625" stop-color="rgb(98.329163%, 98.390198%, 98.452759%)" stop-opacity="1"/>
<stop offset="0.28125" stop-color="rgb(98.544312%, 98.597717%, 98.651123%)" stop-opacity="1"/>
<stop offset="0.3125" stop-color="rgb(98.838806%, 98.880005%, 98.924255%)" stop-opacity="1"/>
<stop offset="0.34375" stop-color="rgb(99.189758%, 99.21875%, 99.249268%)" stop-opacity="1"/>
<stop offset="0.375" stop-color="rgb(99.484253%, 99.502563%, 99.5224%)" stop-opacity="1"/>
<stop offset="0.5" stop-color="rgb(99.80011%, 99.806213%, 99.815369%)" stop-opacity="1"/>
<stop offset="0.625" stop-color="rgb(99.798584%, 99.798584%, 99.807739%)" stop-opacity="1"/>
<stop offset="0.65625" stop-color="rgb(99.525452%, 99.525452%, 99.546814%)" stop-opacity="1"/>
<stop offset="0.6875" stop-color="rgb(99.328613%, 99.328613%, 99.357605%)" stop-opacity="1"/>
<stop offset="0.71875" stop-color="rgb(99.092102%, 99.092102%, 99.133301%)" stop-opacity="1"/>
<stop offset="0.75" stop-color="rgb(98.81897%, 98.81897%, 98.872375%)" stop-opacity="1"/>
<stop offset="0.78125" stop-color="rgb(98.506165%, 98.506165%, 98.574829%)" stop-opacity="1"/>
<stop offset="0.8125" stop-color="rgb(98.153687%, 98.153687%, 98.23761%)" stop-opacity="1"/>
<stop offset="0.828125" stop-color="rgb(97.866821%, 97.866821%, 97.962952%)" stop-opacity="1"/>
<stop offset="0.84375" stop-color="rgb(97.659302%, 97.659302%, 97.766113%)" stop-opacity="1"/>
<stop offset="0.859375" stop-color="rgb(97.442627%, 97.442627%, 97.558594%)" stop-opacity="1"/>
<stop offset="0.875" stop-color="rgb(97.213745%, 97.213745%, 97.340393%)" stop-opacity="1"/>
<stop offset="0.890625" stop-color="rgb(96.975708%, 96.975708%, 97.114563%)" stop-opacity="1"/>
<stop offset="0.90625" stop-color="rgb(96.728516%, 96.728516%, 96.876526%)" stop-opacity="1"/>
<stop offset="0.921875" stop-color="rgb(96.469116%, 96.469116%, 96.629333%)" stop-opacity="1"/>
<stop offset="0.9375" stop-color="rgb(96.199036%, 96.199036%, 96.37146%)" stop-opacity="1"/>
<stop offset="0.953125" stop-color="rgb(95.918274%, 95.918274%, 96.102905%)" stop-opacity="1"/>
<stop offset="0.96875" stop-color="rgb(95.626831%, 95.626831%, 95.825195%)" stop-opacity="1"/>
<stop offset="0.984375" stop-color="rgb(95.324707%, 95.324707%, 95.53833%)" stop-opacity="1"/>
<stop offset="1" stop-color="rgb(95.011902%, 95.011902%, 95.239258%)" stop-opacity="1"/>
</linearGradient>
<clipPath id="clip-8">
<path clip-rule="nonzero" d="M 3876 0 L 5815.148438 0 L 5815.148438 2622.28125 L 3876 2622.28125 Z M 3876 0 "/>
</clipPath>
<clipPath id="clip-9">
<path clip-rule="nonzero" d="M 4383 363 L 5315 363 L 5315 2244 L 4383 2244 Z M 4383 363 "/>
</clipPath>
<clipPath id="clip-10">
<path clip-rule="nonzero" d="M 5205.660156 2243.128906 L 4492.839844 2243.128906 C 4432.628906 2243.128906 4383.820312 2194.320312 4383.820312 2134.109375 L 4383.820312 472.089844 C 4383.820312 411.878906 4432.628906 363.070312 4492.839844 363.070312 L 5205.660156 363.070312 C 5265.871094 363.070312 5314.679688 411.878906 5314.679688 472.089844 L 5314.679688 2134.109375 C 5314.679688 2194.320312 5265.871094 2243.128906 5205.660156 2243.128906 Z M 5205.660156 2243.128906 "/>
</clipPath>
<clipPath id="clip-11">
<path clip-rule="nonzero" d="M 5205.660156 2243.128906 L 4492.839844 2243.128906 C 4432.628906 2243.128906 4383.820312 2194.320312 4383.820312 2134.109375 L 4383.820312 472.089844 C 4383.820312 411.878906 4432.628906 363.070312 4492.839844 363.070312 L 5205.660156 363.070312 C 5265.871094 363.070312 5314.679688 411.878906 5314.679688 472.089844 L 5314.679688 2134.109375 C 5314.679688 2194.320312 5265.871094 2243.128906 5205.660156 2243.128906 "/>
</clipPath>
<linearGradient id="linear-pattern-2" gradientUnits="userSpaceOnUse" x1="0.100478" y1="0" x2="0.886109" y2="0" gradientTransform="matrix(1471.77, -2201.22, 2201.22, 1471.77, 4123.24, 2388.95)">
<stop offset="0" stop-color="rgb(93.086243%, 93.34259%, 93.598938%)" stop-opacity="1"/>
<stop offset="0.0078125" stop-color="rgb(93.186951%, 93.440247%, 93.692017%)" stop-opacity="1"/>
<stop offset="0.015625" stop-color="rgb(93.388367%, 93.634033%, 93.878174%)" stop-opacity="1"/>
<stop offset="0.0234375" stop-color="rgb(93.588257%, 93.824768%, 94.062805%)" stop-opacity="1"/>
<stop offset="0.03125" stop-color="rgb(93.783569%, 94.013977%, 94.244385%)" stop-opacity="1"/>
<stop offset="0.046875" stop-color="rgb(94.07196%, 94.291687%, 94.511414%)" stop-opacity="1"/>
<stop offset="0.0625" stop-color="rgb(94.448853%, 94.654846%, 94.859314%)" stop-opacity="1"/>
<stop offset="0.078125" stop-color="rgb(94.815063%, 95.005798%, 95.198059%)" stop-opacity="1"/>
<stop offset="0.09375" stop-color="rgb(95.169067%, 95.347595%, 95.527649%)" stop-opacity="1"/>
<stop offset="0.109375" stop-color="rgb(95.513916%, 95.680237%, 95.845032%)" stop-opacity="1"/>
<stop offset="0.125" stop-color="rgb(95.846558%, 96.000671%, 96.153259%)" stop-opacity="1"/>
<stop offset="0.140625" stop-color="rgb(96.168518%, 96.310425%, 96.452332%)" stop-opacity="1"/>
<stop offset="0.15625" stop-color="rgb(96.479797%, 96.609497%, 96.740723%)" stop-opacity="1"/>
<stop offset="0.171875" stop-color="rgb(96.77887%, 96.897888%, 97.018433%)" stop-opacity="1"/>
<stop offset="0.1875" stop-color="rgb(97.067261%, 97.175598%, 97.283936%)" stop-opacity="1"/>
<stop offset="0.203125" stop-color="rgb(97.343445%, 97.441101%, 97.540283%)" stop-opacity="1"/>
<stop offset="0.21875" stop-color="rgb(97.607422%, 97.695923%, 97.784424%)" stop-opacity="1"/>
<stop offset="0.234375" stop-color="rgb(97.860718%, 97.940063%, 98.019409%)" stop-opacity="1"/>
<stop offset="0.25" stop-color="rgb(98.100281%, 98.171997%, 98.242188%)" stop-opacity="1"/>
<stop offset="0.265625" stop-color="rgb(98.329163%, 98.390198%, 98.452759%)" stop-opacity="1"/>
<stop offset="0.28125" stop-color="rgb(98.544312%, 98.597717%, 98.651123%)" stop-opacity="1"/>
<stop offset="0.3125" stop-color="rgb(98.83728%, 98.880005%, 98.924255%)" stop-opacity="1"/>
<stop offset="0.34375" stop-color="rgb(99.189758%, 99.21875%, 99.249268%)" stop-opacity="1"/>
<stop offset="0.375" stop-color="rgb(99.484253%, 99.502563%, 99.5224%)" stop-opacity="1"/>
<stop offset="0.5" stop-color="rgb(99.80011%, 99.806213%, 99.815369%)" stop-opacity="1"/>
<stop offset="0.625" stop-color="rgb(99.798584%, 99.798584%, 99.807739%)" stop-opacity="1"/>
<stop offset="0.65625" stop-color="rgb(99.525452%, 99.525452%, 99.546814%)" stop-opacity="1"/>
<stop offset="0.6875" stop-color="rgb(99.328613%, 99.328613%, 99.357605%)" stop-opacity="1"/>
<stop offset="0.71875" stop-color="rgb(99.092102%, 99.092102%, 99.133301%)" stop-opacity="1"/>
<stop offset="0.75" stop-color="rgb(98.81897%, 98.81897%, 98.872375%)" stop-opacity="1"/>
<stop offset="0.78125" stop-color="rgb(98.506165%, 98.506165%, 98.574829%)" stop-opacity="1"/>
<stop offset="0.8125" stop-color="rgb(98.153687%, 98.153687%, 98.23761%)" stop-opacity="1"/>
<stop offset="0.828125" stop-color="rgb(97.866821%, 97.866821%, 97.962952%)" stop-opacity="1"/>
<stop offset="0.84375" stop-color="rgb(97.659302%, 97.659302%, 97.766113%)" stop-opacity="1"/>
<stop offset="0.859375" stop-color="rgb(97.442627%, 97.442627%, 97.558594%)" stop-opacity="1"/>
<stop offset="0.875" stop-color="rgb(97.213745%, 97.213745%, 97.340393%)" stop-opacity="1"/>
<stop offset="0.890625" stop-color="rgb(96.975708%, 96.975708%, 97.114563%)" stop-opacity="1"/>
<stop offset="0.90625" stop-color="rgb(96.728516%, 96.728516%, 96.876526%)" stop-opacity="1"/>
<stop offset="0.921875" stop-color="rgb(96.469116%, 96.469116%, 96.629333%)" stop-opacity="1"/>
<stop offset="0.9375" stop-color="rgb(96.199036%, 96.199036%, 96.37146%)" stop-opacity="1"/>
<stop offset="0.953125" stop-color="rgb(95.918274%, 95.918274%, 96.104431%)" stop-opacity="1"/>
<stop offset="0.96875" stop-color="rgb(95.626831%, 95.626831%, 95.826721%)" stop-opacity="1"/>
<stop offset="0.984375" stop-color="rgb(95.324707%, 95.324707%, 95.53833%)" stop-opacity="1"/>
<stop offset="1" stop-color="rgb(95.011902%, 95.011902%, 95.239258%)" stop-opacity="1"/>
</linearGradient>
</defs>
<g clip-path="url(#clip-0)">
<path fill-rule="nonzero" fill="rgb(100%, 87.5%, 50.193787%)" fill-opacity="1" d="M 1938.378906 2622.28125 L 0 2622.28125 L 0 0 L 1938.378906 0 L 1938.378906 2622.28125 "/>
</g>
<path fill-rule="nonzero" fill="rgb(30.200195%, 29.80957%, 30.200195%)" fill-opacity="1" d="M 1465.03125 979.328125 L 1465.03125 641.78125 C 1474.238281 641.78125 1481.699219 649.25 1481.699219 658.460938 L 1481.699219 962.648438 C 1481.699219 971.859375 1474.238281 979.328125 1465.03125 979.328125 "/>
<path fill-rule="nonzero" fill="rgb(30.200195%, 29.80957%, 30.200195%)" fill-opacity="1" d="M 1465.03125 1235.25 L 1465.03125 1074.75 C 1474.238281 1074.75 1481.699219 1082.210938 1481.699219 1091.421875 L 1481.699219 1218.570312 C 1481.699219 1227.78125 1474.238281 1235.25 1465.03125 1235.25 "/>
<g clip-path="url(#clip-1)">
<g clip-path="url(#clip-2)">
<g clip-path="url(#clip-3)">
<path fill-rule="nonzero" fill="url(#linear-pattern-0)" d="M -361.632812 1662.308594 L 1150.335938 2673.234375 L 2306.601562 943.890625 L 794.632812 -67.035156 Z M -361.632812 1662.308594 "/>
</g>
</g>
</g>
<path fill-rule="nonzero" fill="rgb(13.719177%, 12.156677%, 12.547302%)" fill-opacity="1" d="M 639.15625 390.75 C 581.265625 390.75 528.855469 437.148438 528.855469 494.929688 L 528.855469 2105.828125 C 528.855469 2163.621094 581.265625 2205.449219 639.15625 2205.449219 L 1305.820312 2205.449219 C 1363.710938 2205.449219 1416.121094 2163.621094 1416.121094 2105.828125 L 1416.121094 494.929688 C 1416.121094 437.148438 1363.710938 390.75 1305.820312 390.75 Z M 1305.820312 2270.191406 L 639.15625 2270.191406 C 596.628906 2270.191406 556.648438 2258.839844 526.578125 2228.820312 C 496.507812 2198.800781 479.945312 2153.71875 479.945312 2111.269531 L 479.945312 489.628906 C 479.945312 447.179688 496.507812 407.269531 526.578125 377.25 C 556.648438 347.230469 596.628906 336.011719 639.15625 336.011719 L 1305.820312 336.011719 C 1348.339844 336.011719 1388.328125 347.230469 1418.398438 377.25 C 1448.46875 407.269531 1465.03125 447.179688 1465.03125 489.628906 L 1465.03125 2111.269531 C 1465.03125 2153.71875 1448.46875 2198.800781 1418.398438 2228.820312 C 1388.328125 2258.839844 1348.339844 2270.191406 1305.820312 2270.191406 "/>
<path fill-rule="nonzero" fill="rgb(13.719177%, 12.156677%, 12.547302%)" fill-opacity="1" d="M 1001.011719 449.429688 C 1001.011719 465.191406 988.238281 477.949219 972.488281 477.949219 C 956.734375 477.949219 943.96875 465.191406 943.96875 449.429688 C 943.96875 433.679688 956.734375 420.910156 972.488281 420.910156 C 988.238281 420.910156 1001.011719 433.679688 1001.011719 449.429688 "/>
<g clip-path="url(#clip-4)">
<path fill-rule="nonzero" fill="rgb(94.921875%, 47.068787%, 44.309998%)" fill-opacity="1" d="M 3876.769531 2622.28125 L 1938.378906 2622.28125 L 1938.378906 0 L 3876.769531 0 L 3876.769531 2622.28125 "/>
</g>
<path fill-rule="nonzero" fill="rgb(30.200195%, 29.80957%, 30.200195%)" fill-opacity="1" d="M 3403.410156 979.328125 L 3403.410156 641.78125 C 3412.621094 641.78125 3420.078125 649.25 3420.078125 658.460938 L 3420.078125 962.648438 C 3420.078125 971.859375 3412.621094 979.328125 3403.410156 979.328125 "/>
<path fill-rule="nonzero" fill="rgb(30.200195%, 29.80957%, 30.200195%)" fill-opacity="1" d="M 3403.410156 1235.25 L 3403.410156 1074.75 C 3412.621094 1074.75 3420.078125 1082.210938 3420.078125 1091.421875 L 3420.078125 1218.570312 C 3420.078125 1227.78125 3412.621094 1235.25 3403.410156 1235.25 "/>
<g clip-path="url(#clip-5)">
<g clip-path="url(#clip-6)">
<g clip-path="url(#clip-7)">
<path fill-rule="nonzero" fill="url(#linear-pattern-1)" d="M 1576.75 1662.308594 L 3088.722656 2673.238281 L 4244.992188 943.890625 L 2733.015625 -67.039062 Z M 1576.75 1662.308594 "/>
</g>
</g>
</g>
<path fill-rule="nonzero" fill="rgb(13.719177%, 12.156677%, 12.547302%)" fill-opacity="1" d="M 2577.539062 390.75 C 2519.648438 390.75 2467.238281 437.148438 2467.238281 494.929688 L 2467.238281 2105.828125 C 2467.238281 2163.621094 2519.648438 2205.449219 2577.539062 2205.449219 L 3244.199219 2205.449219 C 3302.089844 2205.449219 3354.5 2163.621094 3354.5 2105.828125 L 3354.5 494.929688 C 3354.5 437.148438 3302.089844 390.75 3244.199219 390.75 Z M 3244.199219 2270.191406 L 2577.539062 2270.191406 C 2535.011719 2270.191406 2495.03125 2258.839844 2464.960938 2228.820312 C 2434.890625 2198.800781 2418.328125 2153.71875 2418.328125 2111.269531 L 2418.328125 489.628906 C 2418.328125 447.179688 2434.890625 407.269531 2464.960938 377.25 C 2495.03125 347.230469 2535.011719 336.011719 2577.539062 336.011719 L 3244.199219 336.011719 C 3286.730469 336.011719 3326.710938 347.230469 3356.78125 377.25 C 3386.851562 407.269531 3403.410156 447.179688 3403.410156 489.628906 L 3403.410156 2111.269531 C 3403.410156 2153.71875 3386.851562 2198.800781 3356.78125 2228.820312 C 3326.710938 2258.839844 3286.730469 2270.191406 3244.199219 2270.191406 "/>
<path fill-rule="nonzero" fill="rgb(13.719177%, 12.156677%, 12.547302%)" fill-opacity="1" d="M 2939.390625 449.429688 C 2939.390625 465.191406 2926.621094 477.949219 2910.871094 477.949219 C 2895.121094 477.949219 2882.351562 465.191406 2882.351562 449.429688 C 2882.351562 433.679688 2895.121094 420.910156 2910.871094 420.910156 C 2926.621094 420.910156 2939.390625 433.679688 2939.390625 449.429688 "/>
<g clip-path="url(#clip-8)">
<path fill-rule="nonzero" fill="rgb(60.351562%, 85.15625%, 96.875%)" fill-opacity="1" d="M 5815.148438 2622.28125 L 3876.769531 2622.28125 L 3876.769531 0 L 5815.148438 0 L 5815.148438 2622.28125 "/>
</g>
<path fill-rule="nonzero" fill="rgb(30.200195%, 29.80957%, 30.200195%)" fill-opacity="1" d="M 5341.789062 979.328125 L 5341.789062 641.78125 C 5351 641.78125 5358.46875 649.25 5358.46875 658.460938 L 5358.46875 962.648438 C 5358.46875 971.859375 5351 979.328125 5341.789062 979.328125 "/>
<path fill-rule="nonzero" fill="rgb(30.200195%, 29.80957%, 30.200195%)" fill-opacity="1" d="M 5341.789062 1235.25 L 5341.789062 1074.75 C 5351 1074.75 5358.46875 1082.210938 5358.46875 1091.421875 L 5358.46875 1218.570312 C 5358.46875 1227.78125 5351 1235.25 5341.789062 1235.25 "/>
<g clip-path="url(#clip-9)">
<g clip-path="url(#clip-10)">
<g clip-path="url(#clip-11)">
<path fill-rule="nonzero" fill="url(#linear-pattern-2)" d="M 3515.128906 1662.308594 L 5027.101562 2673.238281 L 6183.371094 943.890625 L 4671.398438 -67.039062 Z M 3515.128906 1662.308594 "/>
</g>
</g>
</g>
<path fill-rule="nonzero" fill="rgb(13.719177%, 12.156677%, 12.547302%)" fill-opacity="1" d="M 4515.921875 390.75 C 4458.03125 390.75 4405.621094 437.148438 4405.621094 494.929688 L 4405.621094 2105.828125 C 4405.621094 2163.621094 4458.03125 2205.449219 4515.921875 2205.449219 L 5182.578125 2205.449219 C 5240.46875 2205.449219 5292.878906 2163.621094 5292.878906 2105.828125 L 5292.878906 494.929688 C 5292.878906 437.148438 5240.46875 390.75 5182.578125 390.75 Z M 5182.578125 2270.191406 L 4515.921875 2270.191406 C 4473.390625 2270.191406 4433.410156 2258.839844 4403.339844 2228.820312 C 4373.269531 2198.800781 4356.710938 2153.71875 4356.710938 2111.269531 L 4356.710938 489.628906 C 4356.710938 447.179688 4373.269531 407.269531 4403.339844 377.25 C 4433.410156 347.230469 4473.390625 336.011719 4515.921875 336.011719 L 5182.578125 336.011719 C 5225.109375 336.011719 5265.089844 347.230469 5295.160156 377.25 C 5325.230469 407.269531 5341.789062 447.179688 5341.789062 489.628906 L 5341.789062 2111.269531 C 5341.789062 2153.71875 5325.230469 2198.800781 5295.160156 2228.820312 C 5265.089844 2258.839844 5225.109375 2270.191406 5182.578125 2270.191406 "/>
<path fill-rule="nonzero" fill="rgb(13.719177%, 12.156677%, 12.547302%)" fill-opacity="1" d="M 4877.769531 449.429688 C 4877.769531 465.191406 4865 477.949219 4849.25 477.949219 C 4833.5 477.949219 4820.730469 465.191406 4820.730469 449.429688 C 4820.730469 433.679688 4833.5 420.910156 4849.25 420.910156 C 4865 420.910156 4877.769531 433.679688 4877.769531 449.429688 "/>
</svg>
